<?xml version="1.0" encoding="UTF-8"?>
<svg width="682.67" height="682.67" version="1.1" viewBox="0 0 682.67 682.67" xmlns="http://www.w3.org/2000/svg" xmlns:cc="http://creativecommons.org/ns#" xmlns:dc="http://purl.org/dc/elements/1.1/" xmlns:rdf="http://www.w3.org/1999/02/22-rdf-syntax-ns#" xmlns:xlink="http://www.w3.org/1999/xlink">
 <metadata>
  <rdf:RDF>
   <cc:Work rdf:about="">
    <dc:format>image/svg+xml</dc:format>
    <dc:type rdf:resource="http://purl.org/dc/dcmitype/StillImage"/>
    <dc:title/>
   </cc:Work>
  </rdf:RDF>
 </metadata>
 <defs>
  <linearGradient id="linearGradient999" x1="164.79" x2="508.47" y1="462.96" y2="229.13" gradientUnits="userSpaceOnUse">
   <stop stop-color="#ff10cc" offset="0"/>
   <stop stop-color="#3d93e0" offset="1"/>
  </linearGradient>
 </defs>
 <path d="m164.79 462.96c-3.2409-3.2409-1.6414-6.2085 5.38-9.982 4.8981-2.6324 8.8992-6.3363 13.415-12.418 13.764-18.539 19.895-22.857 32.453-22.857 6.4786 0 7.0239-0.22463 5.8538-2.4111-0.70972-1.3261-2.8572-7.1332-4.7722-12.905-13.045-39.315 3.4268-81.839 38.737-100.01 19.725-10.148 35.006-13.95 79.392-19.751 31.183-4.0753 37.85-5.7073 55.269-13.529 12.054-5.4127 13.576-6.5011 15.796-11.295 2.7544-5.946 7.9136-9.2426 14.476-9.25 2.4197-3e-3 6.4995-1.2901 9.0662-2.8608 17.724-10.846 22.542-12.453 38-12.673 12.871-0.18298 15.958-0.70712 25.215-4.2807 11.686-4.5111 12.257-4.4369 14.921 1.939 5.3845 12.887-0.25541 29.057-16.7 47.88-24.455 27.992-41.568 53.481-52.267 77.849-4.9162 11.197-23.752 61.71-23.272 62.41 0.0977 0.14281 2.3682-0.2344 5.0456-0.83825 12.015-2.7099 22.715 2.9671 33.773 17.92 8.917 12.058 13.259 16.224 18.823 18.06 4.4438 1.4666 6.2001 3.991 4.9831 7.1625-3.19 8.3131-18.003-0.74396-32.522-19.885-14.271-18.814-25.716-18.817-40-0.0107-14.38 18.932-22.86 24.409-35.574 22.976-9.3762-1.0568-16.534-6.385-26.844-19.983-17.589-23.198-27.273-23.126-45.585 0.33932-10.77 13.801-16.978 18.435-26.155 19.522-12.749 1.51-22.481-4.597-34.772-21.821-7.2686-10.186-12.2-13.855-19.77-14.708-8.0003-0.90176-13.486 2.7826-23.259 15.62-8.7149 11.448-14.541 16.883-20.998 19.589-5.2574 2.2031-6.0841 2.2233-8.1095 0.19794zm114.54-12.181c1.8272-1.1972 4.7388-4.1363 6.4702-6.5313 15.452-21.374 22.591-26.754 35.351-26.64 11.703 0.1052 17.865 4.2529 29.431 19.813 10.598 14.256 15.049 17.067 26.326 16.62 5.7393-0.22747 15.826-10.559 22.029-22.566 2.9125-5.6367 9.0318-20.749 13.599-33.582 21.322-59.92 34.625-83.831 67.131-120.67 5.8244-6.6 12.271-14.625 14.327-17.833 3.721-5.808 7.3942-19.013 5.9423-21.362-0.42376-0.68566-5.0548 0.41822-10.424 2.4847-8.8739 3.4154-10.356 3.6133-18.183 2.4273-11.074-1.678-16.766-0.0669-32.393 9.1672-9.2792 5.4832-13.228 7.1004-16.758 6.8627-5.5539-0.37403-8.328 2.6823-8.328 9.1751 0 2.4265-0.45 4.5057-1 4.6205-0.55 0.1148-2.5887 0.32449-4.5304 0.46601s-9.7417 3.0199-17.333 6.3964c-16.746 7.448-18.727 7.9023-59.803 13.713-36.651 5.1848-53.406 9.1408-67.574 15.955-32.156 15.467-47.999 51.08-38.225 85.927 7.2525 25.858 28.099 57.652 38.631 58.918 5.1647 0.62097 11.28-0.72314 15.313-3.3656zm181.46-194.49c-3.8132-3.8132-0.30424-9.6339 5.3266-8.8357 5.636 0.79896 4.2602 10.436-1.4899 10.436-1.2302 0-2.9567-0.72-3.8367-1.6z" fill="url(#linearGradient999)" stroke-width="1.3333"/>
</svg>
