<?xml version="1.0" encoding="UTF-8"?>
<svg width="682.67" height="682.67" version="1.1" viewBox="0 0 682.67 682.67" xmlns="http://www.w3.org/2000/svg" xmlns:cc="http://creativecommons.org/ns#" xmlns:dc="http://purl.org/dc/elements/1.1/" xmlns:rdf="http://www.w3.org/1999/02/22-rdf-syntax-ns#">
 <metadata>
  <rdf:RDF>
   <cc:Work rdf:about="">
    <dc:format>image/svg+xml</dc:format>
    <dc:type rdf:resource="http://purl.org/dc/dcmitype/StillImage"/>
    <dc:title/>
   </cc:Work>
  </rdf:RDF>
 </metadata>
 <defs>
  <linearGradient id="linearGradient999" x1="164.79" x2="508.47" y1="462.96" y2="229.13" gradientUnits="userSpaceOnUse">
   <stop stop-color="#ff10cc" offset="0"/>
   <stop stop-color="#3d93e0" offset="1"/>
  </linearGradient>
 </defs>
 <path d="m503.36 221.62c-6.7947 0.59359-12.704 4.4184-19.277 5.9049-5.207 1.3082-10.602 1.4566-15.943 1.4828-2.4779 0.0486-5.1165 0.128-7.4892 0.30956-0.96253 0.0755-1.682 0.1474-2.6387 0.25-0.61362 0.0703-1.5518 0.18743-2.2845 0.30226-6.0222 0.83909-11.721 3.1772-17.032 6.0669-1.1646 0.6385-2.5288 1.3971-3.7557 2.1112-3.2931 1.8673-6.5289 3.8593-9.94 5.5026-3.8032 1.4861-8.0863 0.764-11.845 2.4141-5.1324 2.0382-9.0044 6.4775-11.19 11.46-1.4993 2.7575-4.5736 3.9368-7.2418 5.242-10.433 5.0331-21.214 9.6452-32.655 11.793-9.8729 1.8947-19.854 3.1413-29.805 4.5421-11.175 1.538-22.437 3.0558-33.48 5.1337-9.9895 1.8909-20.05 4.3059-29.63 7.9182-10.64 4.0136-20.946 9.241-29.781 16.468-15.062 12.416-25.33 30.306-29.036 49.425-1.3264 6.7959-1.8288 13.747-1.5488 20.664 0.0413 0.75729 0.0876 1.8209 0.15592 2.6932 0.15623 2.3078 0.43839 4.8633 0.79959 7.2568 0.842 5.6484 2.2538 11.327 4.0953 16.654 0.96564 2.8049 1.9597 5.5329 2.9727 8.3496-1.481 0.10597-3.1706 0.19843-4.4394 0.3125-4.4366 0.38627-8.8958 1.5102-12.66 3.9681-6.8549 4.2305-11.894 10.674-16.749 16.966-2.9997 3.8329-5.9119 7.8131-9.568 11.065-3.0291 2.6114-6.6623 4.3632-9.9148 6.6539-2.4611 1.8904-4.5848 4.8461-4.1698 8.0959 0.41193 2.9807 2.4378 5.5626 4.9068 7.1771 1.9637 1.124 4.4512 1.0989 6.4615 0.10546 6.5178-2.2518 12.479-6.1195 17.098-11.249 6.5092-6.7564 11.501-14.847 18.339-21.301 2.7588-2.4904 6.429-4.306 10.229-3.8703 5.1373 0.36555 9.7319 3.4587 12.828 7.4537 5.9983 7.08 10.875 15.218 18.137 21.144 4.6626 3.9071 10.24 6.9144 16.298 7.8692 0.32329 0.0504 1.0494 0.15151 1.541 0.19406 5.5829 0.57747 11.453-0.47466 16.56-2.9435 1.2663-0.59627 2.7211-1.4441 3.7428-2.1138 3.1235-2.0211 5.6927-4.7429 8.2454-7.4168 6.0388-6.5267 10.973-14.065 17.644-20.002 2.6594-2.3163 5.7818-4.5534 9.4322-4.7147 3.6166-0.0546 6.7554 2.1399 9.3899 4.3956 5.0868 4.571 9.0851 10.161 13.404 15.424 1.2102 1.4687 2.5614 3.086 3.9031 4.5452 4.007 4.4379 8.7033 8.4104 14.283 10.701 6.9074 2.9647 14.933 3.2004 21.992 0.60524 0.31354-0.11327 0.9836-0.36932 1.4316-0.5612 4.8205-1.9943 8.8183-5.4802 12.498-9.097 5.7906-5.7482 10.418-12.511 15.842-18.582 2.5619-2.7215 5.4578-5.3468 9.0315-6.6257 3.2803-1.2052 7.0058-0.38773 9.8225 1.5646 5.7832 3.8901 9.6771 9.798 14.095 15.049 5.8654 6.9769 12.392 13.695 20.572 17.933 3.3109 1.6999 7.4316 2.5991 10.938 0.94764 4.0185-1.9254 5.8141-7.4327 4.0332-11.289-1.12-2.8338-3.9528-4.4171-6.6291-5.5192-2.4966-1.0899-5.0818-2.2197-6.9434-4.2842-5.2543-4.8468-9.0284-10.99-13.642-16.4-1.0128-1.2403-2.25-2.6687-3.4364-3.9178-4.9718-5.2715-11.051-9.8755-18.197-11.624-3.5431-0.92295-7.2277-0.98106-10.864-0.84494-0.99822 0.29269-0.32565-0.60684-0.19853-1.1172 6.8363-18.791 13.638-37.61 21.467-56.018 6.6036-14.842 15.15-28.746 24.526-41.984 7.1298-10.081 14.874-19.712 22.841-29.138 4.7045-5.6817 9.6425-11.21 13.614-17.45 2.5078-3.8905 4.7026-7.9932 6.378-12.312 0.23751-0.6079 0.56261-1.5099 0.80612-2.242 0.34185-1.0071 0.58774-1.8467 0.88138-2.9006 0.46173-1.6816 0.82029-3.5183 1.0142-5.1302 0.8519-6.8664-0.27216-14.168-4.0783-20.037-1.3552-2.0791-3.6498-3.5459-6.1878-3.4281zm-8.2578 24.471c-1.4959 5.1623-3.4515 10.331-6.9285 14.51-7.0633 9.0367-14.764 17.546-22.062 26.384-5.0378 6.0837-9.9445 12.341-14.399 18.802-10.024 14.299-18.399 29.713-25.369 45.714-8.3374 18.921-15.028 38.438-22.381 57.748-3.2604 8.3848-6.4814 16.85-11.06 24.626-2.9332 4.8594-6.5385 9.3616-10.87 13.048-1.3572 1.0495-2.7213 2.2088-4.3672 2.7598-3.1126 0.91823-6.4461 0.33113-9.4706-0.63434-2.9329-1.0424-5.3431-3.1273-7.3622-5.442-4.0665-4.3591-7.4709-9.2696-11.193-13.914-0.39892-0.48015-0.87092-1.0846-1.272-1.5573-2.6186-3.1533-5.4652-6.1539-8.7612-8.6087-0.60724-0.45133-1.4672-1.0649-2.207-1.5293-4.5002-2.8389-9.8024-4.2374-15.099-4.3669-6.4586-0.22769-13.135 1.1952-18.516 4.8942-0.46805 0.31549-1.1972 0.82993-1.748 1.2521-7.9958 6.0893-13.586 14.575-19.772 22.351-1.8041 2.1688-3.5811 4.4944-6.1432 5.8158-3.1154 1.7067-6.7438 2.4821-10.284 2.2643-2.2204-0.17499-4.2872-1.209-5.9057-2.7146-3.9864-3.3928-7.1548-7.6084-10.286-11.769-6.1946-8.6174-11.178-18.054-15.427-27.763-4.6286-10.716-7.8446-22.259-7.6694-34.012 0.10364-16.405 6.267-32.763 17.314-44.933 7.229-8.0903 16.424-14.364 26.517-18.317 12.652-5.1327 26.145-7.6623 39.537-10.008 19.968-3.4153 40.136-5.6011 60.03-9.4661 8.1798-1.7198 15.961-4.8773 23.558-8.2952 5.269-2.2429 10.536-4.6977 16.202-5.7541 2.097-0.41867 4.2876-0.20183 6.3494-0.79032 1.2481-0.53787 1.4336-2.0824 1.3847-3.2773 0.29699-3.2225 0.41321-6.4715 1.1143-9.6426 0.13276-0.58487 1.1263-0.19446 1.628-0.36139 2.0199-0.11005 4.1276-0.22885 6.1856-0.66015 2.6991-0.58393 5.196-1.8327 7.668-3.0254 5.1164-2.6609 9.952-5.8293 15.11-8.4167 4.8523-2.5087 10.134-4.7022 15.692-4.5949 5.7023 0.0782 11.402 1.8544 17.093 0.69854 0.76326-0.14411 1.5787-0.33646 2.203-0.51189 1.7014-0.45625 3.635-1.1324 5.3931-1.8 2.2359-0.86017 4.4712-1.7217 6.707-2.582-0.37696 1.293-0.75391 2.5859-1.1309 3.8789zm-33.534 3.0143c-5.333 0.0646-10.037 5.381-9.1424 10.707 0.79719 5.0772 6.363 8.7713 11.355 7.5145 3.8389-0.86128 6.6061-4.5114 6.9483-8.3498 0.43464-3.5296-1.2119-7.4847-4.5668-9.0046-1.4272-0.68965-3.0204-0.92111-4.5938-0.86718z" fill="url(#linearGradient999)"/>
</svg>
